<svg width="52" height="64" xmlns="http://www.w3.org/2000/svg"><g fill="none"><path d="M46.658 25.732H35.21a14.506 14.506 0 0 0 5.264-11.197C40.474 6.508 33.97 0 25.95 0c-8.022 0-14.525 6.508-14.525 14.535a14.51 14.51 0 0 0 5.263 11.197H5.24a5.213 5.213 0 0 0-5.21 5.216 5.213 5.213 0 0 0 5.21 5.216h8.757V58.66a5.213 5.213 0 0 0 5.212 5.215 5.213 5.213 0 0 0 5.21-5.216V47.47h3.058v11.19a5.213 5.213 0 0 0 10.424-.001V36.163h8.756a5.213 5.213 0 0 0 5.212-5.216 5.214 5.214 0 0 0-5.212-5.216z" fill="#D79F61"/><g transform="translate(17.092 9.48)" fill="#FFF"><circle cx="3.96" cy="1.724" r="1.61"/><circle cx="13.755" cy="1.724" r="1.61"/><path d="M8.858 14.54c-4.847 0-8.79-3.944-8.79-8.79a1.007 1.007 0 0 1 2.013-.001c0 3.736 3.04 6.776 6.778 6.776a6.784 6.784 0 0 0 6.777-6.777 1.006 1.006 0 1 1 2.014-.001c0 4.846-3.944 8.79-8.79 8.79z"/></g><g transform="translate(24.078 30.066)" fill="#4868F8"><circle cx="1.872" cy="1.952" r="1.864"/><circle cx="1.872" cy="8.662" r="1.864"/></g><path d="M9.595 25.732H7.26l-1.15 1.84 1.343 2.15-1.342 2.15 1.343 2.15-1.01 1.618c-.102.163-.15.344-.152.524H8.49l1.337-2.142-1.342-2.15 1.342-2.15-1.342-2.15 1.01-1.617a.997.997 0 0 0 .102-.223zM24.42 55.645l-2.484-1.628-2.05 1.342-2.047-1.343-2.05 1.342-1.5-.982a.993.993 0 0 0-.293-.13v2.343l1.792 1.175 2.048-1.342 2.05 1.342 2.048-1.342 1.496.98c.307.2.68.212.99.064v-1.822zm13.482-.24l-2.187-1.373-2.14 1.342-2.137-1.342-2.14 1.342-1.604-1.007a1.001 1.001 0 0 0-.216-.1v2.34l1.82 1.143 2.14-1.342 2.138 1.342 2.14-1.342 1.6 1.006a1 1 0 0 0 .586.152v-2.16zm8.193-29.673H43.76l-1.15 1.84 1.343 2.15-1.342 2.148 1.343 2.15-1.01 1.62a.983.983 0 0 0-.15.524h2.196l1.335-2.143-1.34-2.15 1.34-2.15-1.34-2.15 1.008-1.615a.954.954 0 0 0 .102-.223z" fill="#FFF"/><path d="M12.8 15.944c0-8.027 6.5-14.534 14.522-14.534 3.722 0 7.116 1.402 9.686 3.706A14.482 14.482 0 0 0 25.95 0c-8.022 0-14.524 6.508-14.524 14.535 0 4.303 1.87 8.167 4.837 10.83a14.485 14.485 0 0 1-3.464-9.42zm8.175 46.026a5.213 5.213 0 0 1-5.212-5.215V34.26H7.007a5.214 5.214 0 0 1-4.582-7.7 5.209 5.209 0 0 0-2.396 4.388 5.213 5.213 0 0 0 5.21 5.216h8.757V58.66a5.208 5.208 0 1 0 9.792 2.483 5.188 5.188 0 0 1-2.815.828z" fill="#414042" opacity=".1"/></g></svg>