<svg width="58" height="64" viewBox="0 0 58 64" version="1.1" xmlns="http://www.w3.org/2000/svg"><g stroke="none" stroke-width="1" fill="none" fill-rule="evenodd"><path d="M28 55h24V27H6v28h8V41a6 6 0 0 1 6-6h2a6 6 0 0 1 6 6v14zm12-19h-4a1 1 0 0 0-1 1v3h5v-4zm2 0v4h5v-3a1 1 0 0 0-1-1h-4zm-2 10v-4h-5v3a1 1 0 0 0 1 1h4zm2 0h4a1 1 0 0 0 1-1v-3h-5v4zm12-19v30H4V27H1a1 1 0 0 1-.88-1.47l8-15A1 1 0 0 1 9 10h40c.37 0 .7.2.88.53l8 15A1 1 0 0 1 57 27h-3zM2.67 25h52.66L48.4 12H9.6L2.67 25zM36 34h10a3 3 0 0 1 3 3v8a3 3 0 0 1-3 3H36a3 3 0 0 1-3-3v-8a3 3 0 0 1 3-3zm-10 7a4 4 0 0 0-4-4h-2a4 4 0 0 0-4 4v14h10V41z" fill="#4868F8" fill-rule="nonzero"/><path stroke="#4868F8" stroke-width="3" d="M39.5 6.5h6v3h-6z"/></g></svg>
