<svg width="64" height="64" viewBox="0 0 64 64" xmlns="http://www.w3.org/2000/svg"><g fill="none" fill-rule="evenodd"><g><g transform="translate(0 11)"><path d="M62.72 23.574a7.682 7.682 0 0 1 0-15.148V1.28H1.28v7.146a7.682 7.682 0 0 1 0 15.148v7.786h61.44v-7.786z"/><path d="M62 23.725c-3.669-.883-6.4-4.141-6.4-8.039 0-3.897 2.731-7.155 6.4-8.038V2H2v5.648c3.669.883 6.4 4.14 6.4 8.038 0 3.898-2.731 7.156-6.4 8.039V30h60v-6.275zm2-1.764v8.784c0 .693-.573 1.255-1.28 1.255H1.28C.573 32 0 31.438 0 30.745v-8.784c3.535 0 6.4-2.81 6.4-6.275 0-3.465-2.865-6.274-6.4-6.274V1.255C0 .562.573 0 1.28 0h61.44C63.427 0 64 .562 64 1.255v8.157c-3.535 0-6.4 2.809-6.4 6.274 0 3.466 2.865 6.275 6.4 6.275z" fill="#4868F8" fill-rule="nonzero"/><rect fill="#4868F8" x="15" y="3" width="2" height="4" rx="1"/><rect fill="#4868F8" x="15" y="9" width="2" height="4" rx="1"/><rect fill="#4868F8" x="15" y="15" width="2" height="4" rx="1"/><rect fill="#4868F8" x="15" y="21" width="2" height="4" rx="1"/></g><path d="M10.88 54.13a4.09 4.09 0 1 1 0-8.18 4.09 4.09 0 0 1 0 8.18zm0-1.78a2.31 2.31 0 1 0 0-4.62 2.31 2.31 0 0 0 0 4.62zM20.48 54.13a4.09 4.09 0 1 1 0-8.18 4.09 4.09 0 0 1 0 8.18zm0-1.78a2.31 2.31 0 1 0 0-4.62 2.31 2.31 0 0 0 0 4.62z" fill="#4868F8" fill-rule="nonzero"/><path d="M19.695 46.802a.89.89 0 0 1-1.63.716l-7.04-16a.89.89 0 0 1 1.63-.716l7.04 16zM11.963 46.699a.89.89 0 0 0 1.674.602l1.44-4a.89.89 0 0 0-1.674-.602l-1.44 4zM30.53 22c0 1.364 1.074 2.47 2.384 2.47 1.311 0 2.386-1.106 2.386-2.47s-1.075-2.47-2.386-2.47c-1.31 0-2.384 1.106-2.384 2.47zm-1.78 0c0-2.343 1.866-4.25 4.164-4.25 2.3 0 4.166 1.907 4.166 4.25s-1.867 4.25-4.166 4.25c-2.298 0-4.164-1.907-4.164-4.25zm11.23 9.28c0 1.365 1.074 2.47 2.385 2.47 1.31 0 2.385-1.105 2.385-2.47 0-1.364-1.075-2.47-2.385-2.47-1.31 0-2.385 1.106-2.385 2.47zm-1.78 0c0-2.343 1.866-4.25 4.165-4.25 2.298 0 4.165 1.907 4.165 4.25s-1.867 4.25-4.165 4.25c-2.299 0-4.165-1.907-4.165-4.25zm-6.63-.036l11.314-11.313a.89.89 0 1 1 1.259 1.258L32.829 32.503a.89.89 0 1 1-1.258-1.259z" fill="#4868F8" fill-rule="nonzero"/></g></g></svg>
