<svg width="64" height="64" viewBox="0 0 64 64" xmlns="http://www.w3.org/2000/svg"><g fill="none" fill-rule="evenodd"><g transform="rotate(-45 59.85 29.157)" fill="#4868F8"><rect x="18" y="5" width="2" height="6" rx="1"/><rect x="18" y="13" width="2" height="4" rx="1"/><rect x="59" y="5" width="2" height="12" rx="1"/><path d="M19.123 6L8 8.78v4.431L19.123 16H65V6H19.123zM19 4h47a1 1 0 0 1 1 1v12a1 1 0 0 1-1 1H19a1 1 0 0 1-.243-.03l-12-3.009a1 1 0 0 1-.757-.97V8a1 1 0 0 1 .757-.97l12-3A1 1 0 0 1 19 4z" fill-rule="nonzero"/><path d="M67 13h8V9h-8v4zm-1-6h10a1 1 0 0 1 1 1v6a1 1 0 0 1-1 1H66a1 1 0 0 1-1-1V8a1 1 0 0 1 1-1zM39 2h18a2 2 0 0 1 2 2v3a1 1 0 0 0 2 0V4a4 4 0 0 0-4-4H39a1 1 0 0 0 0 2zM3 10a1 1 0 0 0 0 2h2.5v-2H3zm0-2h3.5a1 1 0 0 1 1 1v4a1 1 0 0 1-1 1H3a3 3 0 0 1 0-6z" fill-rule="nonzero"/></g></g></svg>
