<svg width="64" height="64" viewBox="0 0 64 64" xmlns="http://www.w3.org/2000/svg"><g fill="none" fill-rule="evenodd"><g fill="#4868F8" fill-rule="nonzero"><g><path d="M4 3a1 1 0 0 0-1 1v12a1 1 0 0 0 1 1h12a1 1 0 0 0 1-1V4a1 1 0 0 0-1-1H4zm0-2h12a3 3 0 0 1 3 3v12a3 3 0 0 1-3 3H4a3 3 0 0 1-3-3V4a3 3 0 0 1 3-3z"/></g><g><path d="M4 25a1 1 0 0 0-1 1v12a1 1 0 0 0 1 1h12a1 1 0 0 0 1-1V26a1 1 0 0 0-1-1H4zm0-2h12a3 3 0 0 1 3 3v12a3 3 0 0 1-3 3H4a3 3 0 0 1-3-3V26a3 3 0 0 1 3-3z"/></g><g><path d="M26 3a1 1 0 0 0-1 1v12a1 1 0 0 0 1 1h12a1 1 0 0 0 1-1V4a1 1 0 0 0-1-1H26zm0-2h12a3 3 0 0 1 3 3v12a3 3 0 0 1-3 3H26a3 3 0 0 1-3-3V4a3 3 0 0 1 3-3z"/></g><g><path d="M26 25a1 1 0 0 0-1 1v12a1 1 0 0 0 1 1h12a1 1 0 0 0 1-1V26a1 1 0 0 0-1-1H26zm0-2h12a3 3 0 0 1 3 3v12a3 3 0 0 1-3 3H26a3 3 0 0 1-3-3V26a3 3 0 0 1 3-3z"/></g><g><path d="M48 3a1 1 0 0 0-1 1v12a1 1 0 0 0 1 1h12a1 1 0 0 0 1-1V4a1 1 0 0 0-1-1H48zm0-2h12a3 3 0 0 1 3 3v12a3 3 0 0 1-3 3H48a3 3 0 0 1-3-3V4a3 3 0 0 1 3-3z"/></g><g><path d="M48 25a1 1 0 0 0-1 1v12a1 1 0 0 0 1 1h12a1 1 0 0 0 1-1V26a1 1 0 0 0-1-1H48zm0-2h12a3 3 0 0 1 3 3v12a3 3 0 0 1-3 3H48a3 3 0 0 1-3-3V26a3 3 0 0 1 3-3z"/></g><g><path d="M4 47a1 1 0 0 0-1 1v12a1 1 0 0 0 1 1h12a1 1 0 0 0 1-1V48a1 1 0 0 0-1-1H4zm0-2h12a3 3 0 0 1 3 3v12a3 3 0 0 1-3 3H4a3 3 0 0 1-3-3V48a3 3 0 0 1 3-3z"/></g><g><path d="M26 47a1 1 0 0 0-1 1v12a1 1 0 0 0 1 1h12a1 1 0 0 0 1-1V48a1 1 0 0 0-1-1H26zm0-2h12a3 3 0 0 1 3 3v12a3 3 0 0 1-3 3H26a3 3 0 0 1-3-3V48a3 3 0 0 1 3-3z"/></g><g><path d="M48 47a1 1 0 0 0-1 1v12a1 1 0 0 0 1 1h12a1 1 0 0 0 1-1V48a1 1 0 0 0-1-1H48zm0-2h12a3 3 0 0 1 3 3v12a3 3 0 0 1-3 3H48a3 3 0 0 1-3-3V48a3 3 0 0 1 3-3z"/></g></g></g></svg>
