<svg width="64" height="64" viewBox="0 0 64 64" xmlns="http://www.w3.org/2000/svg"><g fill="none" fill-rule="evenodd"><path d="M13.002 25.122A3 3 0 0 0 19 25h1l-.966-.258L22.698 11h-5.93l-3.766 14.122zM12 25l-.966-.258L14.698 11h-2.106a1179.482 1179.482 0 0 0-5.71 10.522 165.146 165.146 0 0 0-1.49 2.844 23.583 23.583 0 0 0-.388.795A3 3 0 0 0 11 25h1zm9.002.122A3 3 0 0 0 27 25h1l-.998-.067.93-13.933h-3.164l-3.766 14.122zM29 25.03a3 3 0 0 0 6 .03L33.123 11h-3.188L29 25.031zM36 25h1a3 3 0 0 0 5.998.122L39.232 11h-4.09l1.85 13.868L36 25zm8 0h1a3 3 0 0 0 5.998.122L47.232 11h-5.93l3.664 13.742L44 25zm8 0h1a3 3 0 0 0 6 0c0-.21-.67-1.7-1.882-3.972-1.277-2.394-3.175-5.738-5.69-10.028h-2.126l3.664 13.742L52 25zM11 54V40a6 6 0 0 1 6-6h8a6 6 0 0 1 6 6v14h24V29.9a5 5 0 0 1-3-1.9 4.992 4.992 0 0 1-4 2 4.992 4.992 0 0 1-4-2 4.992 4.992 0 0 1-4 2 4.992 4.992 0 0 1-4-2 4.992 4.992 0 0 1-4 2 4.992 4.992 0 0 1-4-2 4.992 4.992 0 0 1-4 2 4.992 4.992 0 0 1-4-2 4.992 4.992 0 0 1-4 2 4.992 4.992 0 0 1-4-2 5 5 0 0 1-3 1.9V54h2zm31-19h-4a1 1 0 0 0-1 1v6h5v-7zm2 0v7h5v-6a1 1 0 0 0-1-1h-4zm-2 16v-7h-5v6a1 1 0 0 0 1 1h4zm2 0h4a1 1 0 0 0 1-1v-6h-5v7zM7 29.9A5.002 5.002 0 0 1 3 25c0-.556 1.946-4.205 8.123-15.48A1 1 0 0 1 12 9h40a1 1 0 0 1 .862.493C58.45 19.001 61 23.785 61 25a5.002 5.002 0 0 1-4 4.9V56H7V29.9zM38 33h10a3 3 0 0 1 3 3v14a3 3 0 0 1-3 3H38a3 3 0 0 1-3-3V36a3 3 0 0 1 3-3zm-9 21V40a4 4 0 0 0-4-4h-8a4 4 0 0 0-4 4v14h16z" fill="#4868F8" fill-rule="nonzero"/></g></svg>
